<svg width="1600" height="1720" viewBox="0 0 1600 1720" fill="none" xmlns="http://www.w3.org/2000/svg">
  <defs>
    <linearGradient id="bg" x1="248" y1="122" x2="1310" y2="1580" gradientUnits="userSpaceOnUse">
      <stop stop-color="#FFFDFB"/>
      <stop offset="0.48" stop-color="#FBF4F1"/>
      <stop offset="1" stop-color="#F5ECE8"/>
    </linearGradient>
    <linearGradient id="glass" x1="0" y1="0" x2="0" y2="1">
      <stop stop-color="#FBF7F5"/>
      <stop offset="1" stop-color="#E8DDD8"/>
    </linearGradient>
    <linearGradient id="darkBottle" x1="0" y1="0" x2="0" y2="1">
      <stop stop-color="#262626"/>
      <stop offset="1" stop-color="#111111"/>
    </linearGradient>
    <linearGradient id="blush" x1="0" y1="0" x2="1" y2="1">
      <stop stop-color="#E2BCC4"/>
      <stop offset="1" stop-color="#C98A95"/>
    </linearGradient>
    <filter id="shadowSoft" x="140" y="210" width="1320" height="1230" filterUnits="userSpaceOnUse" color-interpolation-filters="sRGB">
      <feFlood flood-opacity="0" result="BackgroundImageFix"/>
      <feBlend mode="normal" in="SourceGraphic" in2="BackgroundImageFix" result="shape"/>
      <feGaussianBlur stdDeviation="36" result="effect1_foregroundBlur_0_1"/>
    </filter>
    <filter id="shadowBottle" x="420" y="300" width="760" height="1020" filterUnits="userSpaceOnUse" color-interpolation-filters="sRGB">
      <feFlood flood-opacity="0" result="BackgroundImageFix"/>
      <feColorMatrix in="SourceAlpha" type="matrix" values="0 0 0 0 0 0 0 0 0 0 0 0 0 0 0 0 0 0 127 0" result="hardAlpha"/>
      <feOffset dy="28"/>
      <feGaussianBlur stdDeviation="34"/>
      <feComposite in2="hardAlpha" operator="out"/>
      <feColorMatrix type="matrix" values="0 0 0 0 0.12 0 0 0 0 0.09 0 0 0 0 0.09 0 0 0 0.22 0"/>
      <feBlend mode="normal" in2="BackgroundImageFix" result="effect1_dropShadow_0_1"/>
      <feBlend mode="normal" in="SourceGraphic" in2="effect1_dropShadow_0_1" result="shape"/>
    </filter>
  </defs>

  <rect width="1600" height="1720" fill="url(#bg)"/>
  <circle cx="1188" cy="326" r="178" fill="#E8CDD2" opacity="0.95"/>
  <circle cx="432" cy="1278" r="212" fill="#F1E0DB"/>
  <circle cx="1350" cy="1090" r="158" fill="#F3E7E2"/>

  <g filter="url(#shadowSoft)" opacity="0.65">
    <ellipse cx="830" cy="1274" rx="462" ry="68" fill="#CAB6B0"/>
  </g>

  <path d="M282 1174H1318" stroke="#DCCFCA" stroke-width="10" stroke-linecap="round"/>

  <g filter="url(#shadowBottle)">
    <rect x="470" y="460" width="222" height="478" rx="78" fill="url(#glass)"/>
    <rect x="526" y="312" width="110" height="176" rx="34" fill="#1B1B1B"/>
    <path d="M506 790C558 758 618 758 664 790" stroke="#D4A2AA" stroke-width="8" stroke-linecap="round"/>
  </g>

  <g filter="url(#shadowBottle)">
    <rect x="892" y="366" width="244" height="584" rx="86" fill="url(#darkBottle)"/>
    <rect x="973" y="228" width="82" height="154" rx="26" fill="#161616"/>
    <rect x="948" y="192" width="132" height="24" rx="12" fill="#D7A1A8"/>
  </g>

  <g filter="url(#shadowBottle)">
    <rect x="706" y="664" width="246" height="302" rx="44" fill="#FFF9F8" stroke="#262323" stroke-width="10"/>
    <circle cx="830" cy="814" r="78" fill="url(#blush)"/>
  </g>

  <g opacity="0.92">
    <path d="M302 1234H1298" stroke="#E5D9D4" stroke-width="8"/>
    <path d="M548 1328H1056" stroke="#EBE1DE" stroke-width="6"/>
  </g>

  <rect x="330" y="1370" width="380" height="70" rx="35" fill="#EFE4E1"/>
  <rect x="900" y="1354" width="220" height="52" rx="26" fill="#E0C0C6"/>
</svg>
