<svg width="2200" height="1400" viewBox="0 0 2200 1400" fill="none" xmlns="http://www.w3.org/2000/svg">
  <defs>
    <linearGradient id="bg" x1="180" y1="90" x2="1820" y2="1320" gradientUnits="userSpaceOnUse">
      <stop stop-color="#FFFDFB"/>
      <stop offset="0.5" stop-color="#FBF5F2"/>
      <stop offset="1" stop-color="#F4EAE5"/>
    </linearGradient>
    <radialGradient id="glowA" cx="0" cy="0" r="1" gradientUnits="userSpaceOnUse" gradientTransform="translate(1630 250) rotate(90) scale(320)">
      <stop stop-color="#EACFD4"/>
      <stop offset="1" stop-color="#EACFD4" stop-opacity="0"/>
    </radialGradient>
    <radialGradient id="glowB" cx="0" cy="0" r="1" gradientUnits="userSpaceOnUse" gradientTransform="translate(640 1180) rotate(90) scale(280)">
      <stop stop-color="#F0E0DA"/>
      <stop offset="1" stop-color="#F0E0DA" stop-opacity="0"/>
    </radialGradient>
    <linearGradient id="glassBottle" x1="0" y1="0" x2="0" y2="1">
      <stop stop-color="#FDF8F5"/>
      <stop offset="1" stop-color="#E9DDD8"/>
    </linearGradient>
    <linearGradient id="darkBottle" x1="0" y1="0" x2="0" y2="1">
      <stop stop-color="#262626"/>
      <stop offset="1" stop-color="#111111"/>
    </linearGradient>
    <linearGradient id="compactFill" x1="0" y1="0" x2="1" y2="1">
      <stop stop-color="#FFF9F8"/>
      <stop offset="1" stop-color="#F6ECE8"/>
    </linearGradient>
    <linearGradient id="blushCore" x1="0" y1="0" x2="1" y2="1">
      <stop stop-color="#E2B7C1"/>
      <stop offset="1" stop-color="#C98692"/>
    </linearGradient>
    <filter id="softShadow" x="290" y="640" width="1500" height="480" filterUnits="userSpaceOnUse" color-interpolation-filters="sRGB">
      <feFlood flood-opacity="0" result="BackgroundImageFix"/>
      <feBlend mode="normal" in="SourceGraphic" in2="BackgroundImageFix" result="shape"/>
      <feGaussianBlur stdDeviation="34" result="effect1_foregroundBlur_0_1"/>
    </filter>
    <filter id="productShadow" x="660" y="200" width="960" height="980" filterUnits="userSpaceOnUse" color-interpolation-filters="sRGB">
      <feFlood flood-opacity="0" result="BackgroundImageFix"/>
      <feColorMatrix in="SourceAlpha" type="matrix" values="0 0 0 0 0 0 0 0 0 0 0 0 0 0 0 0 0 0 127 0" result="hardAlpha"/>
      <feOffset dy="36"/>
      <feGaussianBlur stdDeviation="34"/>
      <feComposite in2="hardAlpha" operator="out"/>
      <feColorMatrix type="matrix" values="0 0 0 0 0.13 0 0 0 0 0.11 0 0 0 0 0.11 0 0 0 0.18 0"/>
      <feBlend mode="normal" in2="BackgroundImageFix" result="effect1_dropShadow_0_1"/>
      <feBlend mode="normal" in="SourceGraphic" in2="effect1_dropShadow_0_1" result="shape"/>
    </filter>
    <filter id="trayGlow" x="744" y="744" width="640" height="360" filterUnits="userSpaceOnUse" color-interpolation-filters="sRGB">
      <feFlood flood-opacity="0" result="BackgroundImageFix"/>
      <feGaussianBlur stdDeviation="22"/>
      <feBlend mode="normal" in2="BackgroundImageFix" result="effect1_foregroundBlur_0_1"/>
    </filter>
  </defs>

  <rect width="2200" height="1400" fill="url(#bg)"/>
  <rect width="2200" height="1400" fill="url(#glowA)"/>
  <rect width="2200" height="1400" fill="url(#glowB)"/>

  <path d="M146 1242H2030" stroke="#E6D7D2" stroke-width="10" stroke-linecap="round"/>

  <g filter="url(#softShadow)" opacity="0.52">
    <ellipse cx="1224" cy="980" rx="520" ry="74" fill="#CDB8B1"/>
  </g>

  <g filter="url(#trayGlow)" opacity="0.85">
    <rect x="840" y="792" width="448" height="220" rx="44" fill="#FFFFFF" fill-opacity="0.42"/>
  </g>

  <rect x="836" y="780" width="460" height="236" rx="46" fill="#FFFFFF" fill-opacity="0.28" stroke="#FFFFFF" stroke-opacity="0.42" stroke-width="8"/>

  <g filter="url(#productShadow)">
    <rect x="930" y="426" width="224" height="470" rx="78" fill="url(#glassBottle)"/>
    <rect x="988" y="294" width="108" height="152" rx="30" fill="#1C1C1C"/>
    <path d="M966 742C1014 714 1076 714 1120 742" stroke="#D4A2AA" stroke-width="8" stroke-linecap="round"/>
    <rect x="965" y="472" width="18" height="280" rx="9" fill="#FFFFFF" fill-opacity="0.42"/>
  </g>

  <g filter="url(#productShadow)">
    <rect x="1234" y="336" width="252" height="590" rx="86" fill="url(#darkBottle)"/>
    <rect x="1318" y="212" width="84" height="126" rx="24" fill="#171717"/>
    <rect x="1286" y="184" width="148" height="20" rx="10" fill="#D6A1A9"/>
    <rect x="1270" y="382" width="18" height="420" rx="9" fill="#FFFFFF" fill-opacity="0.08"/>
  </g>

  <g filter="url(#productShadow)">
    <rect x="1084" y="652" width="256" height="294" rx="44" fill="url(#compactFill)" stroke="#262323" stroke-width="10"/>
    <circle cx="1212" cy="798" r="78" fill="url(#blushCore)"/>
    <circle cx="1212" cy="798" r="52" fill="#D7929E" fill-opacity="0.42"/>
  </g>

  <path d="M920 1088C1030 1048 1200 1040 1342 1082" stroke="#E8DCD8" stroke-width="8" stroke-linecap="round"/>
  <path d="M1018 1126C1126 1100 1224 1100 1328 1126" stroke="#EEE4E0" stroke-width="6" stroke-linecap="round"/>

  <path d="M1264 1048C1320 1030 1380 1030 1430 1048" stroke="#DFC2C8" stroke-width="30" stroke-linecap="round" opacity="0.9"/>
  <path d="M874 1068C932 1054 990 1054 1040 1072" stroke="#E7D0CB" stroke-width="34" stroke-linecap="round" opacity="0.65"/>

  <circle cx="1666" cy="286" r="164" fill="#E9D1D6" fill-opacity="0.9"/>
  <circle cx="736" cy="1182" r="142" fill="#F1E4DF"/>
  <circle cx="1616" cy="1032" r="122" fill="#F4E8E3"/>
</svg>
